<svg width="80" height="80" viewBox="0 0 80 80" fill="none" xmlns="http://www.w3.org/2000/svg">
<g clip-path="url(#clip0_135_4107)">
<path d="M6.61914 50.9925L73.3782 2.29651L33.9997 54.181L6.61914 50.9925Z" fill="#C7E9F4"/>
<path d="M73.3785 2.29651L34 54.181L65.9239 77.7036L73.3785 2.29651Z" fill="#C7E9F4"/>
<path d="M34 54.1809V76.2669L46.3817 63.3041L34 54.1809Z" fill="#C7E9F4"/>
<path d="M72.0259 0.442476L5.26687 49.1385C3.58452 50.3655 4.28402 53.031 6.35407 53.2721L31.7053 56.2241V76.2669C31.7053 78.3449 34.2423 79.3363 35.6599 77.8519L46.6463 66.3497L64.5625 79.5511C65.9893 80.6019 68.0321 79.705 68.2078 77.9294L75.6624 2.52231C75.8655 0.550798 73.6144 -0.716931 72.0259 0.442476ZM62.094 13.3685L32.9641 51.7498L12.7092 49.3912L62.094 13.3685ZM36.2952 70.5415V58.7225L42.9208 63.6046L36.2952 70.5415ZM64.0371 73.4625C59.9864 70.4778 41.3523 56.7476 37.2355 53.714L70.2956 10.155L64.0371 73.4625Z" fill="#0C517F"/>
<path d="M61.5927 37.7165C60.3329 37.5913 59.2078 38.5133 59.0829 39.7746L57.5713 55.0607C57.4468 56.322 58.3681 57.4456 59.6294 57.5702C59.7062 57.5778 59.7824 57.5815 59.858 57.5815C61.0239 57.5815 62.022 56.6966 62.1392 55.5121L63.6505 40.2259C63.7753 38.9646 62.854 37.841 61.5927 37.7165Z" fill="#0C517F"/>
</g>
<defs>
<clipPath id="clip0_135_4107">
<rect width="80" height="80" fill="white"/>
</clipPath>
</defs>
</svg>
