<svg width="80" height="80" viewBox="0 0 80 80" fill="none" xmlns="http://www.w3.org/2000/svg">
<path d="M18.7036 65.3606V74.1351C18.7036 74.3556 18.5234 74.5357 18.3029 74.5357H15.2024C14.9819 74.5357 14.8018 74.3556 14.8018 74.1351V65.3606H18.7036Z" fill="#99ABD5"/>
<path d="M65.1977 65.3606V74.1351C65.1977 74.3556 65.0176 74.5357 64.7944 74.5357H61.6966C61.4734 74.5357 61.2959 74.3556 61.2959 74.1351V65.3606H65.1977Z" fill="#99ABD5"/>
<path d="M77.6376 33.8878V62.6636C77.6376 64.1533 76.4302 65.3607 74.9405 65.3607H70.5922V74.1352C70.5922 77.3325 67.9919 79.9328 64.7946 79.9328H61.6968C58.4994 79.9328 55.8991 77.3325 55.8991 74.1352V65.3607H24.1008V74.1352C24.1008 77.3325 21.5005 79.9328 18.3031 79.9328H15.2026C12.0053 79.9328 9.40499 77.3325 9.40499 74.1352V65.3607H5.05945C3.5697 65.3607 2.3623 64.1533 2.3623 62.6636V33.8878C2.3623 32.96 2.4376 32.0269 2.59088 31.1126L5.41441 14.1661C6.77777 5.99667 13.7747 0.0672607 22.0571 0.0672607H57.9401C66.2225 0.0672607 73.2221 5.99667 74.5828 14.1661L77.409 31.1126C77.5596 32.0269 77.6376 32.96 77.6376 33.8878ZM72.2406 59.9637V33.8878C72.2406 33.2558 72.1895 32.6212 72.0847 32L69.2611 15.0535C68.3361 9.49516 63.5737 5.46424 57.9401 5.46424H22.0571C16.4235 5.46424 11.6638 9.49516 10.7388 15.0535L7.91256 32C7.81037 32.6212 7.75659 33.2558 7.75659 33.8878V59.9637H72.2406ZM65.1979 74.1352V65.3607H61.2961V74.1352C61.2961 74.3557 61.4736 74.5358 61.6968 74.5358H64.7946C65.0178 74.5358 65.1979 74.3557 65.1979 74.1352ZM18.7038 74.1352V65.3607H14.802V74.1352C14.802 74.3557 14.9821 74.5358 15.2026 74.5358H18.3031C18.5236 74.5358 18.7038 74.3557 18.7038 74.1352Z" fill="#0C517F"/>
<path d="M72.2404 33.8878V59.9637H7.75635V33.8878C7.75635 33.2558 7.81013 32.6212 7.91231 32L10.7385 15.0535C11.6636 9.49516 16.4232 5.46423 22.0569 5.46423H57.9399C63.5735 5.46423 68.3358 9.49516 69.2609 15.0535L72.0844 32C72.1893 32.6212 72.2404 33.2558 72.2404 33.8878ZM68.1503 34.837C68.6612 34.2804 68.9167 33.5382 68.8548 32.7879L67.6259 17.8178C67.1311 11.7701 61.9896 7.03465 55.9204 7.03465H24.0763C18.0098 7.03465 12.8683 11.7701 12.3708 17.8178L11.1419 32.7879C11.08 33.5382 11.3355 34.2804 11.8464 34.837C12.3574 35.391 13.078 35.7056 13.831 35.7056H66.1658C66.9214 35.7056 67.6394 35.391 68.1503 34.837ZM69.4088 47.6881C69.4088 43.4474 65.9587 40 61.718 40C57.48 40 54.03 43.4474 54.03 47.6881C54.03 51.9288 57.48 55.3789 61.718 55.3789C65.9587 55.3789 69.4088 51.9288 69.4088 47.6881ZM25.9695 47.6881C25.9695 43.4474 22.5194 40 18.2787 40C14.0407 40 10.5906 43.4474 10.5906 47.6881C10.5906 51.9288 14.0407 55.3789 18.2787 55.3789C22.5194 55.3789 25.9695 51.9288 25.9695 47.6881Z" fill="#C7E9F4"/>
<path d="M68.8549 32.7879C68.9167 33.5382 68.6612 34.2804 68.1503 34.837C67.6394 35.391 66.9214 35.7056 66.1658 35.7056H13.831C13.078 35.7056 12.3574 35.391 11.8464 34.837C11.3355 34.2804 11.0801 33.5382 11.1419 32.7879L12.3708 17.8179C12.8683 11.7701 18.0098 7.03467 24.0764 7.03467H55.9204C61.9896 7.03467 67.1312 11.7701 67.6259 17.8179L68.8549 32.7879ZM63.2374 30.3086L62.2478 18.2589C61.9789 14.989 59.2011 12.429 55.9204 12.429H24.0764C20.7984 12.429 18.0179 14.989 17.749 18.2589L16.7594 30.3086H63.2374Z" fill="#0C517F"/>
<path d="M61.7183 40C65.959 40 69.4091 43.4474 69.4091 47.6881C69.4091 51.9287 65.959 55.3788 61.7183 55.3788C57.4804 55.3788 54.0303 51.9287 54.0303 47.6881C54.0303 43.4474 57.4804 40 61.7183 40ZM64.0121 47.6881C64.0121 46.4242 62.9849 45.3943 61.7183 45.3943C60.4545 45.3943 59.4246 46.4242 59.4246 47.6881C59.4246 48.9519 60.4545 49.9818 61.7183 49.9818C62.9849 49.9818 64.0121 48.9519 64.0121 47.6881Z" fill="#0C517F"/>
<path d="M62.2482 18.2589L63.2377 30.3086H16.7598L17.7493 18.2589C18.0183 14.989 20.7988 12.429 24.0767 12.429H55.9208C59.2014 12.429 61.9793 14.989 62.2482 18.2589Z" fill="white"/>
<path d="M18.2789 40C22.5196 40 25.9696 43.4474 25.9696 47.6881C25.9696 51.9287 22.5196 55.3788 18.2789 55.3788C14.0409 55.3788 10.5908 51.9287 10.5908 47.6881C10.5908 43.4474 14.0409 40 18.2789 40ZM20.5727 47.6881C20.5727 46.4242 19.5454 45.3943 18.2789 45.3943C17.015 45.3943 15.9851 46.4242 15.9851 47.6881C15.9851 48.9519 17.015 49.9818 18.2789 49.9818C19.5454 49.9818 20.5727 48.9519 20.5727 47.6881Z" fill="#0C517F"/>
</svg>
