<svg width="80" height="80" viewBox="0 0 80 80" fill="none" xmlns="http://www.w3.org/2000/svg">
<path d="M56.938 7.76636C51.2954 7.76636 45.5003 10.4716 41.8147 14.8267C41.3629 15.3602 40.6994 15.668 40.0005 15.668C40.0001 15.668 40.0001 15.668 40.0001 15.668C39.3011 15.6678 38.6372 15.36 38.1859 14.8265C34.502 10.4716 28.7059 7.76636 23.0601 7.76636C12.7945 7.76636 4.75342 15.8084 4.75342 26.0751C4.75342 39.0333 16.1533 49.7517 36.3024 67.5811C36.3372 67.6118 36.3713 67.6437 36.4042 67.6765L40.0001 71.2562L43.5952 67.6765C43.6285 67.6437 43.6625 67.6118 43.6974 67.5809C63.8468 49.7542 75.2467 39.0372 75.2467 26.0751C75.2467 15.8084 67.2045 7.76636 56.938 7.76636ZM24.4766 16.1635C18.1036 16.1635 13.1116 21.1563 13.1116 27.5304C13.1116 28.8431 12.0474 29.907 10.7349 29.907C9.42239 29.907 8.35824 28.8431 8.35824 27.5304C8.35824 18.4911 15.4383 11.4102 24.4766 11.4102C25.7892 11.4102 26.8533 12.4743 26.8533 13.7869C26.8533 15.0996 25.7892 16.1635 24.4766 16.1635Z" fill="#C7E9F4"/>
<path d="M56.938 3.01306C50.7041 3.01306 44.5464 5.52619 40.0002 9.83688C35.4558 5.52639 29.2963 3.01306 23.0599 3.01306C10.1292 3.01306 0 13.1432 0 26.0751C0 33.3125 2.98055 40.3118 9.37974 48.1021C14.9623 54.8986 22.7347 61.9221 33.1001 71.0946L38.3235 76.2946C38.7873 76.7561 39.3937 76.987 40.0004 76.987C40.607 76.987 41.2135 76.7561 41.6773 76.2944L46.8995 71.0944C57.2642 61.9242 65.0355 54.9022 70.6213 48.1021C77.0199 40.3122 80 33.3129 80 26.0751C80 13.1432 69.87 3.01306 56.938 3.01306ZM43.6973 67.5809C43.6625 67.6118 43.6284 67.6437 43.5951 67.6766L40 71.2563L36.4041 67.6766C36.3712 67.6437 36.3372 67.6118 36.3023 67.5811C16.1533 49.7517 4.75335 39.0331 4.75335 26.0751C4.75335 15.8085 12.7944 7.76661 23.0601 7.76661C28.7059 7.76661 34.502 10.4719 38.1858 14.8267C38.6372 15.3603 39.3011 15.6681 40 15.6683C40 15.6683 40 15.6683 40.0004 15.6683C40.6993 15.6683 41.3628 15.3605 41.8146 14.8269C45.5002 10.4719 51.2953 7.76661 56.938 7.76661C67.2044 7.76661 75.2465 15.8085 75.2465 26.0751C75.2467 39.0373 63.8467 49.7543 43.6973 67.5809Z" fill="#0C517F"/>
<path d="M24.4766 11.4103C15.4383 11.4103 8.35815 18.4912 8.35815 27.5305C8.35815 28.8432 9.42231 29.9071 10.7348 29.9071C12.0473 29.9071 13.1115 28.8432 13.1115 27.5305C13.1115 21.1564 18.1035 16.1636 24.4766 16.1636C25.7891 16.1636 26.8532 15.0997 26.8532 13.787C26.8532 12.4744 25.7891 11.4103 24.4766 11.4103Z" fill="#0C517F"/>
</svg>
