<svg width="80" height="80" viewBox="0 0 80 80" fill="none" xmlns="http://www.w3.org/2000/svg">
<path d="M16.2995 77.1461C12.3791 77.1461 9.18921 73.9562 9.18921 70.0357V64.6531C9.18921 63.3812 10.2203 62.3501 11.4922 62.3501H21.1069C22.3788 62.3501 23.4099 63.381 23.4099 64.6531V70.0357C23.4102 73.9565 20.2203 77.1461 16.2995 77.1461ZM13.7952 66.9564V70.0361C13.7952 71.4171 14.9186 72.5404 16.2995 72.5404C17.6805 72.5404 18.8039 71.417 18.8039 70.0361V66.9564H13.7952Z" fill="#0C517F"/>
<path d="M63.7002 77.146C59.7794 77.146 56.5898 73.9562 56.5898 70.0357V64.653C56.5898 63.3812 57.6209 62.3501 58.8928 62.3501H68.1227C68.201 62.3501 68.2786 62.3458 68.3555 62.3408C68.9908 62.2982 69.6161 62.5218 70.0813 62.9574C70.5464 63.393 70.8107 64.0016 70.8107 64.6388V70.0356C70.8105 73.9565 67.621 77.146 63.7002 77.146ZM61.1958 66.9563V70.036C61.1958 71.4171 62.3194 72.5404 63.7002 72.5404C65.081 72.5404 66.2046 71.417 66.2046 70.036V66.9563H61.1958Z" fill="#0C517F"/>
<path d="M52.6851 27.7046C57.0561 27.7046 60.5995 31.248 60.5995 35.619V42.0506H44.7708V35.619C44.7708 31.2482 48.3142 27.7046 52.6851 27.7046Z" fill="#C7E9F4"/>
<path d="M60.5997 44.3536H44.7707C43.4989 44.3536 42.4678 43.3225 42.4678 42.0507V35.6191C42.4678 29.9852 47.0512 25.4017 52.6851 25.4017C58.3191 25.4017 62.9025 29.9852 62.9025 35.6191V42.0507C62.9027 43.3225 61.8716 44.3536 60.5997 44.3536ZM47.0737 39.7477H58.2969V35.6189C58.2969 32.5247 55.7795 30.0074 52.6853 30.0074C49.5911 30.0074 47.0737 32.5247 47.0737 35.6189V39.7477Z" fill="#0C517F"/>
<path d="M27.3148 27.7046C31.6857 27.7046 35.2292 31.248 35.2292 35.619V42.0506H19.4004V35.619C19.4004 31.2482 22.9438 27.7046 27.3148 27.7046Z" fill="#C7E9F4"/>
<path d="M35.2293 44.3536H19.4004C18.1285 44.3536 17.0974 43.3225 17.0974 42.0507V35.6191C17.0974 29.9852 21.6809 25.4017 27.3148 25.4017C32.9487 25.4017 37.5321 29.9852 37.5321 35.6191V42.0507C37.5321 43.3225 36.5012 44.3536 35.2293 44.3536ZM21.7032 39.7477H32.9263V35.6189C32.9263 32.5247 30.409 30.0074 27.3148 30.0074C24.2206 30.0074 21.7032 32.5249 21.7032 35.6191V39.7477Z" fill="#0C517F"/>
<path d="M68.988 64.6533H11.0121C7.82253 64.6533 5.23706 62.0678 5.23706 58.8783V48.4195C5.23706 45.23 7.82253 42.6445 11.0121 42.6445H68.9881C72.1777 42.6445 74.7631 45.23 74.7631 48.4195V58.8783C74.7631 62.0678 72.1777 64.6533 68.988 64.6533Z" fill="#C7E9F4"/>
<path d="M68.9879 66.9563H11.0118C6.55775 66.9563 2.93384 63.3327 2.93384 58.8783V48.4195C2.93384 43.9655 6.55744 40.3416 11.0118 40.3416H68.988C73.4421 40.3416 77.066 43.9652 77.066 48.4195V58.8783C77.0658 63.3325 73.4423 66.9563 68.9879 66.9563ZM11.0118 44.9473C9.09744 44.9473 7.53963 46.5048 7.53963 48.4195V58.8783C7.53963 60.7927 9.09713 62.3505 11.0118 62.3505H68.988C70.9024 62.3505 72.4602 60.7928 72.4602 58.8783V48.4195C72.4602 46.5052 70.9027 44.9473 68.988 44.9473H11.0118Z" fill="#0C517F"/>
<path d="M22.2249 55.8389H17.0808C15.8089 55.8389 14.7778 54.8078 14.7778 53.5359C14.7778 52.264 15.8089 51.2329 17.0808 51.2329H22.2246C23.4964 51.2329 24.5275 52.264 24.5275 53.5359C24.5275 54.8078 23.4968 55.8389 22.2249 55.8389Z" fill="#0C517F"/>
<path d="M62.9191 55.8389H57.7754C56.5035 55.8389 55.4724 54.8078 55.4724 53.5359C55.4724 52.264 56.5035 51.2329 57.7754 51.2329H62.9191C64.191 51.2329 65.2221 52.264 65.2221 53.5359C65.2221 54.8078 64.191 55.8389 62.9191 55.8389Z" fill="#0C517F"/>
<path d="M10.5683 43.5555C10.4551 43.5555 10.3412 43.5472 10.2261 43.5298C8.96826 43.3426 8.10029 42.1709 8.28764 40.9128L12.47 12.8373C13.282 7.15179 18.2375 2.85413 23.9942 2.85413H56.0059C61.7629 2.85413 66.7181 7.15179 67.5323 12.8509C67.5338 12.8615 67.5353 12.8723 67.5367 12.8829L69.0223 24.4401H73.7684C77.2047 24.4401 80.0001 27.2356 80.0001 30.6718V33.1867C80.0001 34.4586 78.969 35.4897 77.6972 35.4897C76.4253 35.4897 75.3942 34.4586 75.3942 33.1867V30.6718C75.3942 29.7753 74.6648 29.0459 73.7682 29.0459H66.9962C65.8377 29.0459 64.8598 28.1856 64.7121 27.0367L62.9706 13.4879C62.4723 10.0504 59.4807 7.46023 56.0059 7.46023H23.9942C20.5145 7.46023 17.5194 10.0579 17.0275 13.5024L12.8431 41.5917C12.6726 42.7344 11.6898 43.5555 10.5683 43.5555Z" fill="#0C517F"/>
<path d="M2.30297 35.4895C1.0311 35.4895 0 34.4586 0 33.1865V30.6717C0 27.2354 2.79547 24.4399 6.23173 24.4399H12.5582C13.83 24.4399 14.8611 25.471 14.8611 26.7429C14.8611 28.0148 13.83 29.0459 12.5582 29.0459H6.23173C5.33517 29.0459 4.60579 29.7753 4.60579 30.6718V33.1867C4.60579 34.4586 3.57485 35.4895 2.30297 35.4895Z" fill="#0C517F"/>
</svg>
