<svg width="80" height="80" viewBox="0 0 80 80" fill="none" xmlns="http://www.w3.org/2000/svg">
<path d="M75.0595 53.1967C75.0595 33.8525 59.3628 18.1372 40 18.1372C20.6371 18.1372 4.94043 33.8525 4.94043 53.1967H75.0595Z" fill="#C7E9F4"/>
<path d="M46.2606 18.681C44.2279 18.3144 42.1381 18.1248 40 18.1248C20.6372 18.1248 4.94043 33.8523 4.94043 53.1966H17.4617C17.4618 35.9837 29.8867 21.6344 46.2606 18.681Z" fill="#0C517F"/>
<path d="M47.541 58.1558H32.459V61.9122H47.541V58.1558Z" fill="#C7E9F4"/>
<path d="M4.91797 69.4262V61.8853H75.082V69.4262" fill="#0C517F"/>
<path d="M4.91797 69.4262V61.8853H17.5409V69.4262" fill="#0C517F"/>
<path d="M80 68.1147H0V70.5738H80V68.1147Z" fill="#0C517F"/>
<path d="M76.2296 66.9671H73.7705V63.1966H6.22957V66.9671H3.77051V60.7375H76.2296V66.9671Z" fill="#0C517F"/>
<path d="M43.7704 9.42627H36.2295V11.8853H38.6886V13.0328H41.1475V11.8853H43.7704V9.42627Z" fill="#0C517F"/>
<path d="M76.2296 54.3442V53.1147C76.2296 33.4889 60.6261 17.4541 41.1475 16.8456V14.3442H38.6885V16.8519C19.2864 17.545 3.77051 33.5441 3.77051 53.1147V54.3442H38.6885V56.9672H32.4589V59.4263H47.541V56.9672H41.1475V54.3442H76.2296ZM40 19.2847C58.243 19.2847 73.1596 33.7978 73.8078 51.8852H6.19207C6.84051 33.7978 21.7571 19.2847 40 19.2847Z" fill="#0C517F"/>
<path d="M20.2898 45.281L17.874 44.8216C19.2586 37.5393 23.5186 30.9182 29.5614 26.656L30.9787 28.6655C25.4525 32.5637 21.5564 38.6198 20.2898 45.281Z" fill="white"/>
<path d="M41.3114 64.5083H38.6885V66.9674H41.3114V64.5083Z" fill="white"/>
<path d="M45.082 64.5083H42.459V66.9674H45.082V64.5083Z" fill="white"/>
<path d="M37.5409 64.5083H34.918V66.9674H37.5409V64.5083Z" fill="white"/>
</svg>
