<svg width="80" height="80" viewBox="0 0 80 80" fill="none" xmlns="http://www.w3.org/2000/svg">
<g clip-path="url(#clip0_135_4163)">
<path d="M74.6667 66.6667C76.9334 66.6667 78.6667 64.9334 78.6667 62.6667V14.6667V3.99997C78.6667 2.53325 77.4667 1.33325 75.9999 1.33325H17.3332C15.8665 1.33325 14.6665 2.53325 14.6665 3.99997V9.33325H63.9999C67.7332 9.33325 70.6667 12.2665 70.6667 16V62.6667C70.6667 64.9333 72.3999 66.6667 74.6667 66.6667Z" fill="#0C517F"/>
<path d="M74.6667 66.6667C74.8 66.5334 74.6667 64.9334 74.6667 62.6667V14.6667V3.99997C74.6667 2.53325 73.6 1.33325 72.1335 1.33325H17.2C15.8667 1.33325 14.6667 2.53325 14.6667 3.99997V9.33325H64.6667C68.1335 9.33325 70.9335 12.2665 70.9335 16V62.6667C70.9333 64.9333 72.5333 66.6667 74.6667 66.6667Z" fill="#C7E9F4"/>
<path d="M57.3333 16C57.3333 12.2667 60.2665 9.33325 64 9.33325H16C14.5333 9.33325 13.3333 10.5333 13.3333 12V76C13.3333 77.4667 14.5333 78.6667 16 78.6667H54.6667C56.1334 78.6667 57.3334 77.4667 57.3334 76L57.3333 16Z" fill="#0C517F"/>
<path d="M45.3333 16C45.3333 12.2667 48.2665 9.33325 52 9.33325H3.99997C2.53325 9.33325 1.33325 10.5333 1.33325 12V76C1.33325 77.4667 2.53325 78.6667 3.99997 78.6667H42.6667C44.1334 78.6667 45.3334 77.4667 45.3334 76V16H45.3333Z" fill="white"/>
<path d="M53.3333 16C53.3333 12.2667 56.2665 9.33325 60 9.33325H7.99997C6.53325 9.33325 5.33325 10.5333 5.33325 12V76C5.33325 77.4667 6.53325 78.6667 7.99997 78.6667H50.6667C52.1334 78.6667 53.3334 77.4667 53.3334 76V16H53.3333Z" fill="#C7E9F4"/>
<path d="M43.9999 30.6667C43.9999 38.8 37.4667 45.3334 29.3332 45.3334C21.1998 45.3334 14.6665 38.8002 14.6665 30.6667C14.6665 22.5333 21.1999 16 29.3332 16C37.4665 16 43.9999 22.5333 43.9999 30.6667Z" fill="#C7E9F4"/>
<path d="M39.9999 30.6667C39.9999 38.8 34.2667 45.3334 27.3332 45.3334C20.3998 45.3334 14.6665 38.8002 14.6665 30.6667C14.6665 22.5333 20.3999 16 27.3332 16C34.2665 16 39.9999 22.5333 39.9999 30.6667Z" fill="#C7E9F4"/>
<path d="M54.6667 80H4C1.73328 80 0 78.2667 0 76V12C0 9.73328 1.73328 8 4 8H64C64.8 8 65.3333 8.53328 65.3333 9.33328C65.3333 10.1333 64.8 10.6666 64 10.6666C61.0667 10.6666 58.6667 13.0666 58.6667 15.9998V75.9998C58.6667 78.2667 56.9333 80 54.6667 80ZM4 10.6667C3.2 10.6667 2.66672 11.2 2.66672 12V76C2.66672 76.8 3.2 77.3333 4 77.3333H54.6667C55.4667 77.3333 56 76.8 56 76V16C56 14 56.8 12.1333 58 10.6667H4Z" fill="#0C517F"/>
<path d="M74.6668 68C71.7335 68 69.3335 65.6 69.3335 62.6667V16C69.3335 13.0667 66.9335 10.6667 64.0002 10.6667H14.6668C13.8668 10.6667 13.3335 10.1334 13.3335 9.33344V4C13.3335 1.73328 15.0668 0 17.3335 0H76.0001C78.2668 0 80.0001 1.73328 80.0001 4V62.6667C80.0001 65.6 77.6001 68 74.6668 68ZM16.0001 8H64.0001C68.4001 8 72.0001 11.6 72.0001 16V62.6667C72.0001 64.1334 73.2001 65.3334 74.6668 65.3334C76.1335 65.3334 77.3335 64.1334 77.3335 62.6667V4C77.3335 3.2 76.8002 2.66672 76.0002 2.66672H17.3333C16.5333 2.66672 16.0001 3.2 16.0001 4V8Z" fill="#0C517F"/>
<path d="M64 76C63.2 76 62.6667 75.4667 62.6667 74.6667V16C62.6667 15.2 63.2 14.6667 64 14.6667C64.8 14.6667 65.3333 15.2 65.3333 16V74.6667C65.3333 75.4667 64.8 76 64 76Z" fill="#0C517F"/>
<path d="M29.3333 46.6667C20.5333 46.6667 13.3333 39.4667 13.3333 30.6667C13.3333 21.8667 20.5333 14.6667 29.3333 14.6667C38.1332 14.6667 45.3332 21.8667 45.3332 30.6667C45.3332 39.4667 38.1332 46.6667 29.3333 46.6667ZM29.3333 17.3333C22 17.3333 16 23.3333 16 30.6666C16 37.9999 22 43.9999 29.3333 43.9999C36.6665 43.9999 42.6665 37.9999 42.6665 30.6666C42.6665 23.3333 36.6667 17.3333 29.3333 17.3333Z" fill="#0C517F"/>
<path d="M29.3333 46.6667C24.4 46.6667 20 39.0667 20 30.6667C20 22.2667 24.4 14.6667 29.3333 14.6667C34.2666 14.6667 38.6666 22.2667 38.6666 30.6667C38.6666 39.0667 34.2667 46.6667 29.3333 46.6667ZM29.3333 17.3333C26.6666 17.3333 22.6666 23.0666 22.6666 30.6666C22.6666 38.2666 26.6666 43.9999 29.3333 43.9999C32 43.9999 36 38.2666 36 30.6666C36 23.0666 32 17.3333 29.3333 17.3333Z" fill="#0C517F"/>
<path d="M44 29.3333H14.6667V32H44V29.3333Z" fill="#0C517F"/>
<path d="M32 53.3333H8.00003C7.20003 53.3333 6.66675 52.8 6.66675 52C6.66675 51.2 7.20003 50.6667 8.00003 50.6667H32C32.8 50.6667 33.3333 51.2 33.3333 52C33.3333 52.8 32.8 53.3333 32 53.3333Z" fill="#0C517F"/>
<path d="M26.6667 73.3333H8.00003C7.20003 73.3333 6.66675 72.8 6.66675 72C6.66675 71.2 7.20003 70.6667 8.00003 70.6667H26.6667C27.4667 70.6667 28 71.2 28 72C28 72.8 27.4667 73.3333 26.6667 73.3333Z" fill="#0C517F"/>
<path d="M50.6668 73.3333H34.6668C33.8668 73.3333 33.3335 72.8 33.3335 72C33.3335 71.2 33.8668 70.6667 34.6668 70.6667H50.6668C51.4668 70.6667 52.0001 71.2 52.0001 72C52.0001 72.8 51.4668 73.3333 50.6668 73.3333Z" fill="#0C517F"/>
<path d="M24 60.0001H8.00003C7.20003 60.0001 6.66675 59.4668 6.66675 58.6668C6.66675 57.8668 7.20003 57.3335 8.00003 57.3335H24C24.8 57.3335 25.3333 57.8668 25.3333 58.6668C25.3333 59.4668 24.8 60.0001 24 60.0001Z" fill="#0C517F"/>
<path d="M50.6667 53.3333H40C39.2 53.3333 38.6667 52.8 38.6667 52C38.6667 51.2 39.2 50.6667 40 50.6667H50.6667C51.4667 50.6667 52 51.2 52 52C52 52.8 51.4667 53.3333 50.6667 53.3333Z" fill="#0C517F"/>
<path d="M50.6667 60.0001H32C31.2 60.0001 30.6667 59.4668 30.6667 58.6668C30.6667 57.8668 31.2 57.3335 32 57.3335H50.6667C51.4667 57.3335 52 57.8668 52 58.6668C52 59.4668 51.4667 60.0001 50.6667 60.0001Z" fill="#0C517F"/>
<path d="M16 66.6667H8.00003C7.20003 66.6667 6.66675 66.1334 6.66675 65.3334C6.66675 64.5334 7.20003 64 8.00003 64H16C16.8 64 17.3333 64.5333 17.3333 65.3333C17.3333 66.1333 16.8 66.6667 16 66.6667Z" fill="#0C517F"/>
<path d="M34.6667 66.6668H24C23.2 66.6668 22.6667 66.1335 22.6667 65.3335C22.6667 64.5335 23.2 64.0002 24 64.0002H34.6667C35.4667 64.0002 36 64.5335 36 65.3335C36 66.1335 35.4667 66.6668 34.6667 66.6668Z" fill="#0C517F"/>
<path d="M50.6668 66.6668H42.6668C41.8668 66.6668 41.3335 66.1335 41.3335 65.3335C41.3335 64.5335 41.8668 64.0002 42.6668 64.0002H50.6668C51.4668 64.0002 52.0001 64.5335 52.0001 65.3335C52.0001 66.1335 51.4668 66.6668 50.6668 66.6668Z" fill="#0C517F"/>
<path d="M30.6667 16H28V45.3333H30.6667V16Z" fill="#0C517F"/>
</g>
<defs>
<clipPath id="clip0_135_4163">
<rect width="80" height="80" fill="white"/>
</clipPath>
</defs>
</svg>
