<svg width="80" height="80" viewBox="0 0 80 80" fill="none" xmlns="http://www.w3.org/2000/svg">
<path d="M80 27.9291L79.1814 28.8309L44.5273 66.9912L40.3138 71.6314L40.2222 71.7326L40.2189 71.7294L40.0278 71.5236L39.817 71.2931L35.3092 66.3867L0.797344 28.8309L0 27.965L2.74156 23.9294L11.0105 11.7637L13.3861 8.26733H66.1352L68.9028 12.1934L77.18 23.9294L80 27.9291Z" fill="#C7E9F4"/>
<path d="M80.0001 27.9291L79.1815 28.8309L44.5274 66.9912L40.3138 71.6314L40.2223 71.7326L40.219 71.7294V8.26733H66.1352L68.9029 12.1934L77.1801 23.9294L80.0001 27.9291Z" fill="#0C517F"/>
<path d="M77.18 23.9294H63.6828L68.903 12.1934L66.1352 8.26733H65.2872L58.6733 23.1355L43.5045 8.26733H36.9348L21.307 22.8528L14.8191 8.26733H13.3861L11.0105 11.7637L16.4202 23.9294H2.74156L0 27.965L0.797344 28.8309H18.6031L35.3092 66.3867L39.817 71.2931L40.0278 71.5234L40.2189 71.7294L40.2222 71.7326L40.3138 71.6314L44.5275 66.9912L61.5031 28.8309H79.1814L80 27.9291L77.18 23.9294ZM40.2189 11.9108L40.2205 11.9092L52.3845 23.9295H27.2494L40.2189 11.9108ZM40.2189 64.9898L23.967 28.8309H56.1392L40.2189 64.9898Z" fill="white"/>
<path d="M80.0001 27.9291L79.1815 28.8309H61.5032L44.5274 66.9912L40.3138 71.6314L40.2223 71.7326L40.219 71.7294V64.9898L56.1393 28.8309H40.219V23.9294H52.3848L40.2207 11.9092L40.219 11.9108V8.26733H43.5048L58.6734 23.1353L65.2873 8.26733H66.1352L68.9029 12.1934L63.6827 23.9294H77.1801L80.0001 27.9291Z" fill="#BBDDFF"/>
</svg>
