<svg width="14" height="14" viewBox="0 0 14 14" fill="none" xmlns="http://www.w3.org/2000/svg">
<path d="M9.27066 10.5946H4.72997C4.41705 10.5946 4.16248 10.3398 4.16248 10.0266C4.16248 9.71388 4.41709 9.45946 4.72997 9.45946H7.00028C7.01731 9.45946 7.03433 9.45844 7.05136 9.45689C7.05666 9.45643 7.06188 9.45583 7.06714 9.45522C7.07944 9.45375 7.09166 9.45189 7.10392 9.44962C7.1088 9.44871 7.11379 9.44799 7.11864 9.44697C7.13388 9.44372 7.14902 9.43982 7.164 9.43532C7.16991 9.43354 7.1757 9.43142 7.18148 9.42945C7.19136 9.42612 7.20116 9.42261 7.21081 9.41871C7.21709 9.41621 7.22337 9.41364 7.2295 9.41091C7.23964 9.40645 7.24955 9.40157 7.25947 9.39646C7.26416 9.39404 7.26897 9.39188 7.27354 9.38931C7.28618 9.38235 7.29867 9.37497 7.31085 9.36698C7.31172 9.36638 7.31399 9.36494 7.31691 9.36297C7.31728 9.36271 7.31766 9.36248 7.31804 9.36222C7.37836 9.32215 7.78927 9.04381 8.30243 8.56584C9.3984 7.54486 10.7048 5.87277 10.7048 3.70501C10.7048 1.66206 9.04295 0 7.00028 0C4.95764 0 3.2958 1.66206 3.2958 3.70501C3.2958 5.75419 4.47521 7.35477 5.44446 8.32432H4.72997C3.79118 8.32432 3.02734 9.08801 3.02734 10.0266C3.02734 10.9657 3.79118 11.7297 4.72997 11.7297H9.27066C9.58358 11.7297 9.83816 11.9845 9.83816 12.2976C9.83816 12.6104 9.58354 12.8649 9.27066 12.8649H3.59491C3.28146 12.8649 3.02734 13.119 3.02734 13.4324C3.02734 13.7459 3.28146 14 3.59491 14H9.27066C10.2095 14 10.9733 13.2363 10.9733 12.2976C10.9733 11.3585 10.2095 10.5946 9.27066 10.5946ZM7.00032 2.45586C7.68987 2.45586 8.24893 3.01492 8.24893 3.70451C8.24893 4.39415 7.68987 4.95316 7.00032 4.95316C6.31072 4.95316 5.75167 4.39415 5.75167 3.70451C5.75167 3.01492 6.31072 2.45586 7.00032 2.45586Z" fill="white"/>
</svg>
