<svg width="14" height="14" viewBox="0 0 14 14" fill="none" xmlns="http://www.w3.org/2000/svg">
<g clip-path="url(#clip0_163_2311)">
<path d="M11.9513 9.44303L13.5604 8.63874L9.18359 7.02594L10.7959 11.4028L11.6002 9.79393L13.2872 11.4809C13.3356 11.5293 13.3991 11.5536 13.4626 11.5536C13.5262 11.5536 13.5897 11.5293 13.6381 11.4809C13.7351 11.3839 13.7351 11.2271 13.6381 11.13L11.9513 9.44303ZM10.0211 7.86373L12.3122 8.70773L11.3473 9.19015L10.8651 10.1548L10.0211 7.86373Z" fill="white"/>
<path d="M0 7.74583L6.2405 13.9997L7.76471 12.4797L1.5175 6.23254L0 7.74583Z" fill="white"/>
<path d="M11.2419 0H7.76644L1.86914 5.88191L8.11634 12.1291L8.74692 11.5003C8.83427 11.4129 9.21545 11.0327 9.69117 10.5583L7.927 5.76974L12.7212 7.5364L14 6.26085V2.75186L11.2419 0ZM10.5297 4.18648C9.9912 4.18648 9.5532 3.74847 9.5532 3.20996C9.5532 2.67145 9.9912 2.23345 10.5297 2.23345C11.0682 2.23345 11.5062 2.6717 11.5062 3.21021C11.5062 3.74872 11.0682 4.18648 10.5297 4.18648Z" fill="white"/>
</g>
<defs>
<clipPath id="clip0_163_2311">
<rect width="14" height="14" fill="white"/>
</clipPath>
</defs>
</svg>
