<svg width="14" height="14" viewBox="0 0 14 14" fill="none" xmlns="http://www.w3.org/2000/svg">
<g clip-path="url(#clip0_163_2304)">
<path d="M13.6111 1.71705C13.826 1.71705 14 1.52495 14 1.28778V0.429261C14 0.192094 13.826 0 13.6111 0H0.388889C0.174028 0 0 0.192094 0 0.429261V1.28778C0 1.52495 0.174028 1.71705 0.388889 1.71705H0.777292V12.0193H0.388889C0.174028 12.0193 0 12.2114 0 12.4486V13.3071C0 13.5443 0.174028 13.7364 0.388889 13.7364H6.22222V11.5901C6.22222 11.354 6.39722 11.1608 6.61111 11.1608H7.38889C7.60278 11.1608 7.77778 11.354 7.77778 11.5901V13.7364H13.6111C13.826 13.7364 14 13.5443 14 13.3071V12.4486C14 12.2114 13.826 12.0193 13.6111 12.0193H13.2222V1.71705H13.6111ZM6.22222 2.91898C6.22222 2.74727 6.37778 2.57557 6.53333 2.57557H7.46667C7.62222 2.57557 7.77778 2.74727 7.77778 2.91898V3.9492C7.77778 4.12091 7.62222 4.29261 7.46667 4.29261H6.53333C6.37778 4.29261 6.22222 4.12091 6.22222 3.9492V2.91898ZM6.22222 5.49454C6.22222 5.32284 6.37778 5.15114 6.53333 5.15114H7.46667C7.62222 5.15114 7.77778 5.32284 7.77778 5.49454V6.52477C7.77778 6.69648 7.62222 6.86818 7.46667 6.86818H6.53333C6.37778 6.86818 6.22222 6.69648 6.22222 6.52477V5.49454ZM3.11111 2.91898C3.11111 2.74727 3.26667 2.57557 3.42222 2.57557H4.35556C4.51111 2.57557 4.66667 2.74727 4.66667 2.91898V3.9492C4.66667 4.12091 4.51111 4.29261 4.35556 4.29261H3.42222C3.26667 4.29261 3.11111 4.12091 3.11111 3.9492V2.91898ZM4.35556 6.86818H3.42222C3.26667 6.86818 3.11111 6.69648 3.11111 6.52477V5.49454C3.11111 5.32284 3.26667 5.15114 3.42222 5.15114H4.35556C4.51111 5.15114 4.66667 5.32284 4.66667 5.49454V6.52477C4.66667 6.69648 4.51111 6.86818 4.35556 6.86818ZM4.66667 10.3023C4.66667 8.87981 5.71132 7.7267 7 7.7267C8.28868 7.7267 9.33333 8.87981 9.33333 10.3023H4.66667ZM10.8889 6.52477C10.8889 6.69648 10.7333 6.86818 10.5778 6.86818H9.64444C9.48889 6.86818 9.33333 6.69648 9.33333 6.52477V5.49454C9.33333 5.32284 9.48889 5.15114 9.64444 5.15114H10.5778C10.7333 5.15114 10.8889 5.32284 10.8889 5.49454V6.52477ZM10.8889 3.9492C10.8889 4.12091 10.7333 4.29261 10.5778 4.29261H9.64444C9.48889 4.29261 9.33333 4.12091 9.33333 3.9492V2.91898C9.33333 2.74727 9.48889 2.57557 9.64444 2.57557H10.5778C10.7333 2.57557 10.8889 2.74727 10.8889 2.91898V3.9492Z" fill="white"/>
</g>
<defs>
<clipPath id="clip0_163_2304">
<rect width="14" height="14" fill="white"/>
</clipPath>
</defs>
</svg>
