<svg width="13" height="14" viewBox="0 0 13 14" fill="none" xmlns="http://www.w3.org/2000/svg">
<g clip-path="url(#clip0_163_2317)">
<path d="M9.99592 1.75066C9.82503 1.61132 9.61998 1.53766 9.40325 1.53766H3.29335C3.08474 1.53766 2.88544 1.60738 2.71692 1.73918C2.58316 1.84388 2.55168 2.04857 2.64663 2.19633C2.74138 2.34398 2.92672 2.37884 3.06078 2.27392C3.12811 2.22125 3.2086 2.19338 3.29335 2.19338H9.40325C9.49216 2.19338 9.57503 2.22278 9.64305 2.27808C9.69612 2.32146 9.758 2.34223 9.81929 2.34223C9.91027 2.34223 10.0003 2.29622 10.0584 2.20912C10.1558 2.06344 10.1279 1.8582 9.99592 1.75066Z" fill="white"/>
<path d="M5.85422 0.659302C5.58125 0.659302 5.35938 0.904323 5.35938 1.20552C5.35938 1.50671 5.58125 1.75173 5.85422 1.75173C6.12699 1.75173 6.34906 1.50671 6.34906 1.20552C6.34906 0.904323 6.12689 0.659302 5.85422 0.659302Z" fill="white"/>
<path d="M6.84445 0.659302C6.57149 0.659302 6.34961 0.904323 6.34961 1.20552C6.34961 1.50671 6.57149 1.75173 6.84445 1.75173C7.11722 1.75173 7.3393 1.50671 7.3393 1.20552C7.3393 0.904323 7.11712 0.659302 6.84445 0.659302Z" fill="white"/>
<path d="M12.6675 10.9601L12.0277 5.98216C11.8934 4.76339 10.9013 3.75773 9.81217 3.64932V3.63763C9.81217 3.20255 9.51673 2.84912 9.12258 2.84912H3.58099C3.18693 2.84912 2.78258 3.20255 2.78258 3.63763V3.64932C1.69349 3.75773 0.755785 4.76339 0.621628 5.98194L0.0151035 10.9603C-0.0541033 11.5899 0.116983 12.189 0.477868 12.6388C0.838754 13.0884 1.36449 13.3407 1.93923 13.3407H10.7645C11.3391 13.3407 11.8543 13.0884 12.2152 12.6388C12.5762 12.189 12.7369 11.5898 12.6675 10.9601Z" fill="white"/>
</g>
<defs>
<clipPath id="clip0_163_2317">
<rect width="12.6833" height="14" fill="white"/>
</clipPath>
</defs>
</svg>
