<svg width="20" height="20" viewBox="0 0 20 20" fill="none" xmlns="http://www.w3.org/2000/svg">
<mask id="mask0_135_4281" style="mask-type:alpha" maskUnits="userSpaceOnUse" x="0" y="0" width="20" height="20">
<circle cx="10" cy="10" r="10" fill="#C4C4C4"/>
</mask>
<g mask="url(#mask0_135_4281)">
<path d="M-2.85742 20H24.2854V13.75H-2.85742V20Z" fill="#36B563"/>
<path d="M-2.85742 13.75H24.2854V6.25H-2.85742V13.75Z" fill="#EE3145"/>
<path d="M-2.85742 6.25H24.2854V0H-2.85742V6.25Z" fill="#18A7D2"/>
<path d="M14.4466 10.1705L13.6787 9.86872L13.9967 9.13832L13.2287 9.44003L12.9107 8.71185L12.5929 9.44003L11.825 9.13832L12.1428 9.86872L11.375 10.1705L12.1428 10.4723L11.825 11.2006L12.5929 10.8987L12.9107 11.6291L13.2287 10.8987L13.9967 11.2006L13.6787 10.4723L14.4466 10.1705Z" fill="white"/>
<path d="M10.8926 12.3174C9.62104 12.3174 8.58901 11.3377 8.58901 10.1305C8.58901 8.92113 9.62116 7.94145 10.8926 7.94145C11.6052 7.94145 12.2425 8.24983 12.6664 8.73317C12.172 7.97 11.2841 7.46033 10.2705 7.46033C8.71794 7.46033 7.45996 8.65663 7.45996 10.1305C7.45996 11.6045 8.71794 12.7985 10.2705 12.7985C11.2841 12.7985 12.172 12.289 12.6664 11.5258C12.2425 12.0091 11.6052 12.3174 10.8926 12.3174Z" fill="white"/>
</g>
</svg>
