<svg width="20" height="20" viewBox="0 0 20 20" fill="none" xmlns="http://www.w3.org/2000/svg">
<path d="M9.99999 0C4.47804 0 0 4.49669 0 10.0416C0 15.0135 3.60488 19.133 8.3317 19.9314V12.1381H5.91707V9.33137H8.3317V7.26426C8.3317 4.86406 9.79024 3.55621 11.9219 3.55621C12.9415 3.55621 13.8195 3.63459 14.078 3.66398V6.17193H12.6C11.439 6.17193 11.2146 6.72544 11.2146 7.53857V9.33137H13.9805L13.6195 12.1381H11.2146V20C16.161 19.3975 20 15.1702 20 10.0416C20 4.49669 15.5219 0.00490314 9.99999 0.00490314V0Z" fill="#0C517F"/>
</svg>
