<svg width="20" height="20" viewBox="0 0 20 20" fill="none" xmlns="http://www.w3.org/2000/svg">
<path d="M11.9146 10.0002C11.9146 11.0557 11.0555 11.9148 10 11.9148C8.94455 11.9148 8.08545 11.0557 8.08545 10.0002C8.08545 8.94473 8.94455 8.08563 10 8.08563C11.0555 8.08563 11.9146 8.94473 11.9146 10.0002Z" fill="white"/>
<path d="M14.4771 6.61268C14.3838 6.36232 14.2366 6.13649 14.05 5.94994C13.8635 5.75848 13.6376 5.61121 13.3873 5.52285C13.186 5.4443 12.8816 5.35103 12.322 5.32648C11.7181 5.29703 11.5365 5.29211 9.99993 5.29211C8.46826 5.29211 8.28662 5.29703 7.67788 5.32648C7.11823 5.35103 6.81387 5.4443 6.61259 5.52285C6.36223 5.61612 6.1364 5.76339 5.94985 5.94994C5.75839 6.13649 5.61112 6.36232 5.51784 6.61268C5.43929 6.81396 5.34602 7.11832 5.32148 7.67797C5.29202 8.2818 5.28711 8.46344 5.28711 10C5.28711 11.5317 5.29202 11.7133 5.32148 12.3221C5.34602 12.8817 5.43929 13.1861 5.51784 13.3873C5.61112 13.6377 5.75839 13.8635 5.94494 14.0501C6.13149 14.2415 6.35731 14.3888 6.60768 14.4772C6.80896 14.5557 7.11332 14.649 7.67297 14.6735C8.27679 14.703 8.45844 14.7079 9.99501 14.7079C11.5267 14.7079 11.7083 14.703 12.3171 14.6735C12.8767 14.649 13.1811 14.5557 13.3823 14.4772C13.8831 14.2857 14.2807 13.8881 14.4722 13.3873C14.5507 13.1861 14.644 12.8817 14.6686 12.3221C14.698 11.7182 14.7029 11.5366 14.7029 10C14.7029 8.46835 14.698 8.28671 14.6686 7.67797C14.644 7.11832 14.5507 6.81396 14.4722 6.61268H14.4771ZM9.99993 12.9504C8.37008 12.9504 7.0495 11.6299 7.0495 10C7.0495 8.37017 8.37008 7.04959 9.99993 7.04959C11.6298 7.04959 12.9503 8.37017 12.9503 10C12.9503 11.6299 11.6298 12.9504 9.99993 12.9504ZM13.0633 7.62397C12.6803 7.62397 12.376 7.3147 12.376 6.93669C12.376 6.55378 12.6852 6.24941 13.0633 6.24941C13.4462 6.24941 13.7505 6.55868 13.7505 6.93669C13.7505 7.31961 13.4413 7.62397 13.0633 7.62397Z" fill="white"/>
<path d="M9.99999 0C4.47717 0 0 4.47717 0 9.99999C0 15.5228 4.47717 20 9.99999 20C15.5228 20 20 15.5228 20 9.99999C20 4.47717 15.5228 0 9.99999 0ZM15.7094 12.3662C15.6799 12.9799 15.5866 13.3971 15.4443 13.7604C15.1448 14.5312 14.5361 15.1399 13.7653 15.4394C13.402 15.5817 12.9848 15.6799 12.3711 15.7045C11.7575 15.7339 11.5611 15.7388 10.0049 15.7388C8.44377 15.7388 8.24742 15.7339 7.63868 15.7045C7.02994 15.675 6.60776 15.5817 6.24448 15.4394C5.86156 15.297 5.513 15.0712 5.22827 14.7766C4.93372 14.4919 4.7079 14.1433 4.56553 13.7604C4.42316 13.3971 4.32498 12.9799 4.30043 12.3662C4.27098 11.7526 4.26606 11.5562 4.26606 9.99999C4.26606 8.43888 4.27098 8.24251 4.30043 7.63377C4.32989 7.02012 4.42316 6.60284 4.56553 6.23956C4.7079 5.85665 4.93372 5.50809 5.22827 5.22336C5.513 4.92881 5.86156 4.703 6.24448 4.56063C6.60776 4.41826 7.02503 4.32008 7.63868 4.29553C8.25233 4.26608 8.44868 4.26116 10.0049 4.26116C11.566 4.26116 11.7624 4.26608 12.3711 4.29553C12.9848 4.32499 13.402 4.41826 13.7653 4.56063C14.1482 4.703 14.4968 4.92881 14.7815 5.22336C15.0712 5.50809 15.3019 5.85665 15.4443 6.23956C15.5866 6.60284 15.6848 7.02012 15.7094 7.63377C15.7388 8.24741 15.7437 8.44378 15.7437 9.99999C15.7437 11.5611 15.7388 11.7575 15.7094 12.3662Z" fill="white"/>
</svg>
