<svg width="20" height="20" viewBox="0 0 20 20" fill="none" xmlns="http://www.w3.org/2000/svg">
<path fill-rule="evenodd" clip-rule="evenodd" d="M20 10C20 4.47749 15.5231 0 9.99996 0C4.47688 0 0 4.47756 0 10C0 15.5225 4.47681 20 9.99996 20C15.5231 20 20 15.5226 20 10ZM7.50754 13.74H5.63502V7.4987H7.50754V13.74ZM10.6313 8.34691C11.2082 7.61438 12.0213 7.28251 12.93 7.28251C13.8394 7.28251 15.0044 7.73624 15.0045 10.1969V13.7394H13.132V10.3363C13.132 9.63814 12.9294 8.94001 12.1082 8.94001C11.287 8.94001 10.6313 9.63814 10.6313 10.3538V13.74H8.75195V7.47817H10.6313V8.34691ZM7.50005 5.93746C7.50005 6.45497 7.08003 6.87499 6.56253 6.87499C6.04502 6.87499 5.625 6.45503 5.625 5.93753C5.625 5.42002 6.04502 5 6.56253 5C7.08003 5 7.50005 5.41995 7.50005 5.93746Z" fill="white"/>
</svg>
