<svg width="24" height="24" viewBox="0 0 24 24" fill="none" xmlns="http://www.w3.org/2000/svg">
<path d="M9.13125 13.4297L11.325 15.8484C11.6906 16.2469 12.3844 16.2469 12.75 15.8484L14.9437 13.4297L20.5594 19.4625H3.51562L9.13125 13.4297ZM7.84219 12.0094L2.45156 17.7984V6.06094L7.84219 12.0094ZM12.0375 13.7906L3.65156 4.5375H20.4188L12.0375 13.7906ZM21.6141 6.06094V17.7984L16.2234 12.0094L21.6141 6.06094ZM22.5234 2.625H1.47656C0.946875 2.625 0.515625 3.05156 0.515625 3.58125V20.4188C0.515625 20.9484 0.946875 21.375 1.47656 21.375H22.5187C23.0484 21.375 23.4797 20.9484 23.4797 20.4188V3.58125C23.4844 3.05156 23.0531 2.625 22.5234 2.625Z" fill="white"/>
</svg>
