<svg width="24" height="24" viewBox="0 0 24 24" fill="none" xmlns="http://www.w3.org/2000/svg">
<g clip-path="url(#clip0_163_2287)">
<path d="M2.4 4.8H21.6C22.9254 4.8 24 3.72544 24 2.4C24 1.07456 22.9254 0 21.6 0H2.4C1.07456 0 0 1.07456 0 2.4C0 3.72544 1.07456 4.8 2.4 4.8Z" fill="#0C517F"/>
<path d="M21.6 9.59998H2.4C1.07456 9.59998 0 10.6745 0 12C0 13.3254 1.07456 14.4 2.4 14.4H21.6C22.9254 14.4 24 13.3254 24 12C24 10.6745 22.9254 9.59998 21.6 9.59998Z" fill="#0C517F"/>
<path d="M21.6 19.2H2.4C1.07456 19.2 0 20.2746 0 21.6C0 22.9255 1.07456 24 2.4 24H21.6C22.9254 24 24 22.9255 24 21.6C24 20.2746 22.9254 19.2 21.6 19.2Z" fill="#0C517F"/>
</g>
<defs>
<clipPath id="clip0_163_2287">
<rect width="24" height="24" fill="white"/>
</clipPath>
</defs>
</svg>
