<svg width="24" height="24" viewBox="0 0 24 24" fill="none" xmlns="http://www.w3.org/2000/svg">
<path d="M12.0557 0C12.0491 0 12.036 0 12.0164 0C5.38935 0 0 5.29215 0 11.7996C0 14.4553 0.923328 17.0339 2.61282 19.1109L0.864392 23.1041C0.720327 23.432 0.877489 23.8114 1.20491 23.9465C1.32278 23.9979 1.45375 24.0108 1.57817 23.9915L7.98908 22.8855C9.27257 23.342 10.6215 23.5735 11.9836 23.5671C18.6106 23.5671 24 18.2749 24 11.7675C24.0131 5.27928 18.663 0.00643031 12.0557 0ZM7.94324 9.42684H11.4794C11.8396 9.42684 12.1342 9.7162 12.1342 10.0699C12.1342 10.4235 11.8396 10.7129 11.4794 10.7129H7.94324C7.58308 10.7129 7.2884 10.4235 7.2884 10.0699C7.2884 9.7162 7.58308 9.42684 7.94324 9.42684ZM16.0633 13.9281H7.94324C7.58308 13.9281 7.2884 13.6387 7.2884 13.285C7.2884 12.9314 7.58308 12.642 7.94324 12.642H16.0633C16.4235 12.642 16.7181 12.9314 16.7181 13.285C16.7181 13.6387 16.4235 13.9281 16.0633 13.9281Z" fill="#0C517F"/>
</svg>
