<svg width="20" height="20" viewBox="0 0 20 20" fill="none" xmlns="http://www.w3.org/2000/svg">
<path fill-rule="evenodd" clip-rule="evenodd" d="M20 9.99999C20 15.5228 15.5228 20 9.99999 20C4.47715 20 0 15.5228 0 9.99999C0 4.47715 4.47715 0 9.99999 0C15.5228 0 20 4.47715 20 9.99999ZM14.9009 6.43653C15.4336 6.37293 15.9402 6.23144 16.4119 6.02214C16.0582 6.55108 15.6131 7.01282 15.0975 7.38574C15.103 7.4986 15.1055 7.61188 15.1055 7.72601C15.1055 11.2023 12.4593 15.2108 7.62072 15.2108C6.13505 15.2108 4.75254 14.775 3.58816 14.0283C3.79407 14.0532 4.00382 14.0658 4.21604 14.0658C5.44819 14.0658 6.58266 13.6451 7.483 12.9394C6.33217 12.9179 5.36062 12.1573 5.02585 11.1126C5.1867 11.1428 5.35135 11.1589 5.52106 11.1589C5.7611 11.1589 5.99312 11.1272 6.2142 11.0667C5.01067 10.8249 4.10402 9.76203 4.10402 8.48733V8.45409C4.46933 8.65726 4.87796 8.77004 5.29577 8.78298C4.58999 8.31134 4.12551 7.50618 4.12551 6.59361C4.12551 6.11147 4.25519 5.65959 4.48174 5.27093C5.7792 6.86231 7.71756 7.90961 9.90394 8.01949C9.85936 7.82662 9.83617 7.62574 9.83617 7.41983C9.83617 5.96659 11.0141 4.78917 12.4665 4.78917C13.2231 4.78917 13.9071 5.10835 14.3867 5.61959C14.9761 5.50383 15.5412 5.2879 16.0576 4.98119C15.861 5.59514 15.4445 6.111 14.9009 6.43653Z" fill="white"/>
</svg>
