<svg width="20" height="20" viewBox="0 0 20 20" fill="none" xmlns="http://www.w3.org/2000/svg">
<path d="M8.89136 11.8754L12.1412 10.0001L8.89136 8.12476V11.8754Z" fill="white"/>
<path d="M9.99999 0C4.47716 0 0 4.47717 0 9.99999C0 15.5228 4.47716 20 9.99999 20C15.5228 20 20 15.5228 20 9.99999C20 4.47717 15.5228 0 9.99999 0ZM16.2494 10.0098C16.2494 10.0098 16.2494 12.0373 15.9941 13.0142C15.8517 13.5493 15.4295 13.9715 14.8944 14.1139C13.9175 14.3692 10.0049 14.3692 10.0049 14.3692C10.0049 14.3692 6.10211 14.3692 5.11537 14.0992C4.58027 13.9568 4.15808 13.5346 4.01572 12.9995C3.76044 12.0324 3.76043 9.99508 3.76043 9.99508C3.76043 9.99508 3.76044 7.96759 4.01572 6.99067C4.15808 6.45556 4.59009 6.02357 5.11537 5.8812C6.09229 5.62592 10.0049 5.62591 10.0049 5.62591C10.0049 5.62591 13.9175 5.62592 14.8944 5.89593C15.4295 6.03829 15.8517 6.46048 15.9941 6.99558C16.2641 7.97251 16.2494 10.0098 16.2494 10.0098Z" fill="white"/>
</svg>
